<svg id="Layer_1" data-name="Layer 1" xmlns="http://www.w3.org/2000/svg" xmlns:xlink="http://www.w3.org/1999/xlink" viewBox="0 0 1614.49 730"><defs><style>.cls-1{fill:url(#linear-gradient);}.cls-2{fill:url(#linear-gradient-2);}.cls-3{fill:url(#linear-gradient-3);}.cls-4{fill:url(#linear-gradient-4);}.cls-5{fill:url(#linear-gradient-5);}</style><linearGradient id="linear-gradient" x1="4775.75" y1="986.71" x2="5032.69" y2="338.71" gradientUnits="userSpaceOnUse"><stop offset="0.02" stop-color="#999"/><stop offset="0.14" stop-color="#a9a9a9"/><stop offset="0.53" stop-color="#d7d7d7"/><stop offset="0.83" stop-color="#f4f4f4"/><stop offset="1" stop-color="#fff"/></linearGradient><linearGradient id="linear-gradient-2" x1="5899.45" y1="1432.28" x2="6156.39" y2="784.28" xlink:href="#linear-gradient"/><linearGradient id="linear-gradient-3" x1="4819.17" y1="1003.93" x2="5076.11" y2="355.93" xlink:href="#linear-gradient"/><linearGradient id="linear-gradient-4" x1="5397.7" y1="1233.33" x2="5654.64" y2="585.33" xlink:href="#linear-gradient"/><linearGradient id="linear-gradient-5" x1="5684.33" y1="1346.98" x2="5941.27" y2="698.98" xlink:href="#linear-gradient"/></defs><path class="cls-1" d="M4844.45,995.9v100.8h-77.62v0c-.49,0-1,0-1.47,0h0a39.55,39.55,0,0,1-39.54-39.55V759.83h-71v297.32h.07c0,1.1-.07,2.19-.07,3.3a105.81,105.81,0,0,0,105.45,105.81h155.26V759.83h-71Z" transform="translate(-4422.76 -595)"/><path class="cls-2" d="M6013.69,1120.6a23.55,23.55,0,1,0,23.55,23.55A23.56,23.56,0,0,0,6013.69,1120.6Zm0,39.39a15.72,15.72,0,0,1-11-4.48l3.15-3.72a12,12,0,0,0,8,3.49c3.44,0,5.33-1.56,5.33-3.94s-2-3.32-4.75-4.5l-4.17-1.81c-3-1.25-6.18-3.63-6.18-8.1,0-4.86,4.3-8.61,10.26-8.61a13.37,13.37,0,0,1,9.41,3.9l-2.78,3.43a9.85,9.85,0,0,0-6.63-2.62c-2.9,0-4.78,1.35-4.78,3.59,0,2.4,2.32,3.28,4.85,4.32l4.12,1.73c3.64,1.51,6.18,3.81,6.18,8.24C6024.68,1155.86,6020.57,1160,6013.71,1160Z" transform="translate(-4422.76 -595)"/><path class="cls-3" d="M5164.84,737a136.28,136.28,0,0,0-73,21.06v-1.34H5091C5025.44,659.21,4914.1,595,4787.76,595c-201.59,0-365,163.42-365,365s163.41,365,365,365c126.36,0,237.72-64.22,303.23-161.8h.85v-1l.07-.11h-.07V872h.05a73,73,0,1,1,72.95,75v64a137,137,0,0,0,0-274ZM5018.63,1162.8a306.54,306.54,0,0,1-230.87,104.51c-169.73,0-307.32-137.59-307.32-307.31S4618,652.69,4787.76,652.69A306.54,306.54,0,0,1,5018.63,757.2Z" transform="translate(-4422.76 -595)"/><path class="cls-4" d="M5579.18,1098.26l.09-.23-3.18-.66-4.16-.15c-2.1-.19-4.22-.3-6.37-.3h-1.92l-1.53-.06v.06h-75.63v0c-.48,0-1,0-1.46,0h0a39.55,39.55,0,0,1-39.54-39.55v-55.56h189.32v-73.2H5445.46v-95.8h189.32v-73.2H5385v.44h-10.57v297.32h.06c0,1.1-.06,2.19-.06,3.3a105.81,105.81,0,0,0,105.45,105.81h155.25A69.59,69.59,0,0,0,5579.18,1098.26Z" transform="translate(-4422.76 -595)"/><path class="cls-5" d="M5948,1021.39a99,99,0,0,0-25.31-64.25A91.68,91.68,0,0,0,5948,895.62h0l2.36-135h0a60.53,60.53,0,0,0-60.19,47.62l-.19-.08-.63,2.75-.19,3.62c-.2,1.82-.33,3.66-.36,5.53l0,1.67-.07,1.34h.05l-.34,19.21-.81,46.56h0c0,.42,0,.85,0,1.27h0a34.39,34.39,0,0,1-35,33.78h0l-60.15-1v-161h-71v406.22h71V991.74l52.37-.92h0a37.18,37.18,0,0,1,37.83,36.53h0c0,.47,0,.92,0,1.38h0l1.24,71.1h-.06l.08,1.44,0,1.81c0,2,.18,4,.39,6l.21,3.91.68,3,.21-.09a65.44,65.44,0,0,0,65.06,51.49l-2.54-146Z" transform="translate(-4422.76 -595)"/></svg>